<svg xmlns="http://www.w3.org/2000/svg" xmlns:xlink="http://www.w3.org/1999/xlink" id="body_1" preserveAspectRatio="xMinYMin meet" viewBox="0 0 793 1121"><defs><clipPath id="1"><path id="" clip-rule="evenodd" transform="matrix(1 0 0 1 0 0)" d="M0 841L0 -0.9000244L0 -0.9000244L595.3 -0.9000244L595.3 -0.9000244L595.3 841L595.3 841L0 841z" /></clipPath></defs><g transform="matrix(1.333333 0 0 1.333333 0 0)"><g clip-path="url(#1)"><g transform="matrix(0.8157303 0 0 0.8158879 165.65 84.30011)"><g transform="matrix(1 0 0 1 0 0)"><image x="0" y="0" xlink:href="img_01.png" width="89" height="107" /></g></g><g transform="matrix(1.210145 0 0 1.211111 239.65 84.30005)"><g transform="matrix(1 0 0 1 0 0)"><image x="0" y="0" xlink:href="img_02.png" width="69" height="72" /></g></g><g transform="matrix(0.8132812 0 0 0.8969072 323.65 84.30005)"><g transform="matrix(1 0 0 1 0 0)"><image x="0" y="0" xlink:href="img_03.png" width="128" height="97" /></g></g><g transform="matrix(0.9273543 0 0 0.9386364 90.65 230.9)"><g transform="matrix(1 0 0 1 0 0)"><image x="0" y="0" xlink:href="img_04.png" width="446" height="22" /></g></g><g transform="matrix(0.6359112 0 0 0.5226437 89.65 296.1)"><g transform="matrix(1 0 0 1 0 0)"><image x="0" y="0" xlink:href="img_05.png" width="653" height="435" /></g></g><g transform="matrix(0.6368865 0 0 0.556582 89.65 566.5)"><g transform="matrix(1 0 0 1 0 0)"><image x="0" y="0" xlink:href="img_06.png" width="652" height="433" /></g></g></g></g></svg>